dataset
version=1
nRows=30
nColumns=39
inDegrees=no
endheader
time	sternoclavicular_r2	sternoclavicular_r3	unrotscap_r3	unrotscap_r2	acromioclavicular_r2	acromioclavicular_r3	acromioclavicular_r1	unrothum_r1	unrothum_r3	unrothum_r2	elv_angle	shoulder_elv	shoulder1_r2	shoulder_rot	elbow_flexion	pro_sup	deviation	flexion	cmc_abduction	cmc_flexion	mp_flexion	ip_flexion	mcp2_flexion	mcp2_abduction	pm2_flexion	md2_flexion	mcp3_flexion	mcp3_abduction	pm3_flexion	md3_flexion	mcp4_flexion	mcp4_abduction	pm4_flexion	md4_flexion	mcp5_flexion	mcp5_abduction	pm5_flexion	md5_flexion
0.000000	-0.016645	-0.321302	0.167369	0.053606	0.030538	0.112273	-0.129203	-0.084471	-0.001887	0.088872	0.053789	0.027437	0.146525	0.146525	1.483231	0.912363	0.000000	0.000000	0.000000	0.000000	0.000000	0.000000	0.000000	0.000000	0.000000	0.000000	0.000000	0.000000	0.000000	0.000000	0.000000	0.000000	0.000000	0.000000	0.000000	0.000000	0.000000	0.000000
0.005000	-0.016728	-0.321052	0.167770	0.054144	0.030896	0.113206	-0.128981	-0.084632	-0.000337	0.089025	0.054373	0.027437	0.146525	0.146525	1.482664	0.917530	0.000000	0.000000	0.000000	0.000000	0.000000	0.000000	0.000000	0.000000	0.000000	0.000000	0.000000	0.000000	0.000000	0.000000	0.000000	0.000000	0.000000	0.000000	0.000000	0.000000	0.000000	0.000000
0.010000	-0.016804	-0.320771	0.168035	0.054643	0.031229	0.114058	-0.128647	-0.085014	0.001461	0.089182	0.054997	0.027437	0.146525	0.146525	1.482116	0.922634	0.000000	0.000000	0.000000	0.000000	0.000000	0.000000	0.000000	0.000000	0.000000	0.000000	0.000000	0.000000	0.000000	0.000000	0.000000	0.000000	0.000000	0.000000	0.000000	0.000000	0.000000	0.000000
0.015000	-0.016876	-0.320471	0.168224	0.055124	0.031551	0.114874	-0.128246	-0.085524	0.003416	0.089342	0.055647	0.027437	0.146525	0.146525	1.481584	0.927675	0.000000	0.000000	0.000000	0.000000	0.000000	0.000000	0.000000	0.000000	0.000000	0.000000	0.000000	0.000000	0.000000	0.000000	0.000000	0.000000	0.000000	0.000000	0.000000	0.000000	0.000000	0.000000
0.020000	-0.016948	-0.320158	0.168372	0.055599	0.031868	0.115678	-0.127802	-0.086110	0.005477	0.089504	0.056318	0.027437	0.146525	0.146525	1.481069	0.932653	0.000000	0.000000	0.000000	0.000000	0.000000	0.000000	0.000000	0.000000	0.000000	0.000000	0.000000	0.000000	0.000000	0.000000	0.000000	0.000000	0.000000	0.000000	0.000000	0.000000	0.000000	0.000000
0.025000	-0.017021	-0.319836	0.168498	0.056073	0.032185	0.116482	-0.127329	-0.086746	0.007616	0.089668	0.057005	0.027437	0.146525	0.146525	1.480572	0.937568	0.000000	0.000000	0.000000	0.000000	0.000000	0.000000	0.000000	0.000000	0.000000	0.000000	0.000000	0.000000	0.000000	0.000000	0.000000	0.000000	0.000000	0.000000	0.000000	0.000000	0.000000	0.000000
0.030000	-0.017096	-0.319509	0.168611	0.056552	0.032504	0.117294	-0.126834	-0.087415	0.009817	0.089833	0.057706	0.027437	0.146525	0.146525	1.480093	0.942422	0.000000	0.000000	0.000000	0.000000	0.000000	0.000000	0.000000	0.000000	0.000000	0.000000	0.000000	0.000000	0.000000	0.000000	0.000000	0.000000	0.000000	0.000000	0.000000	0.000000	0.000000	0.000000
0.035000	-0.017173	-0.319178	0.168717	0.057035	0.032825	0.118117	-0.126323	-0.088108	0.012069	0.090000	0.058421	0.027437	0.146525	0.146525	1.479635	0.947214	0.000000	0.000000	0.000000	0.000000	0.000000	0.000000	0.000000	0.000000	0.000000	0.000000	0.000000	0.000000	0.000000	0.000000	0.000000	0.000000	0.000000	0.000000	0.000000	0.000000	0.000000	0.000000
0.040000	-0.017253	-0.318844	0.168820	0.057524	0.033150	0.118954	-0.125798	-0.088819	0.014368	0.090168	0.059147	0.027437	0.146525	0.146525	1.479199	0.951945	0.000000	0.000000	0.000000	0.000000	0.000000	0.000000	0.000000	0.000000	0.000000	0.000000	0.000000	0.000000	0.000000	0.000000	0.000000	0.000000	0.000000	0.000000	0.000000	0.000000	0.000000	0.000000
0.045000	-0.017336	-0.318507	0.168921	0.058019	0.033478	0.119804	-0.125260	-0.089546	0.016709	0.090338	0.059883	0.027437	0.146525	0.146525	1.478788	0.956616	0.000000	0.000000	0.000000	0.000000	0.000000	0.000000	0.000000	0.000000	0.000000	0.000000	0.000000	0.000000	0.000000	0.000000	0.000000	0.000000	0.000000	0.000000	0.000000	0.000000	0.000000	0.000000
0.050000	-0.017421	-0.318168	0.169021	0.058521	0.033810	0.120669	-0.124710	-0.090287	0.019088	0.090508	0.060630	0.027437	0.146525	0.146525	1.478403	0.961227	0.000000	0.000000	0.000000	0.000000	0.000000	0.000000	0.000000	0.000000	0.000000	0.000000	0.000000	0.000000	0.000000	0.000000	0.000000	0.000000	0.000000	0.000000	0.000000	0.000000	0.000000	0.000000
0.055000	-0.017510	-0.317828	0.169121	0.059029	0.034144	0.121549	-0.124149	-0.091039	0.021504	0.090679	0.061387	0.027437	0.146525	0.146525	1.478046	0.965778	0.000000	0.000000	0.000000	0.000000	0.000000	0.000000	0.000000	0.000000	0.000000	0.000000	0.000000	0.000000	0.000000	0.000000	0.000000	0.000000	0.000000	0.000000	0.000000	0.000000	0.000000	0.000000
0.060000	-0.017601	-0.317488	0.169221	0.059543	0.034482	0.122443	-0.123578	-0.091802	0.023955	0.090850	0.062152	0.027437	0.146525	0.146525	1.477720	0.970271	0.000000	0.000000	0.000000	0.000000	0.000000	0.000000	0.000000	0.000000	0.000000	0.000000	0.000000	0.000000	0.000000	0.000000	0.000000	0.000000	0.000000	0.000000	0.000000	0.000000	0.000000	0.000000
0.065000	-0.017695	-0.317147	0.169321	0.060063	0.034823	0.123351	-0.122996	-0.092575	0.026438	0.091022	0.062926	0.027437	0.146525	0.146525	1.477426	0.974705	0.000000	0.000000	0.000000	0.000000	0.000000	0.000000	0.000000	0.000000	0.000000	0.000000	0.000000	0.000000	0.000000	0.000000	0.000000	0.000000	0.000000	0.000000	0.000000	0.000000	0.000000	0.000000
0.070000	-0.017792	-0.316806	0.169421	0.060588	0.035167	0.124273	-0.122405	-0.093356	0.028951	0.091194	0.063707	0.027437	0.146525	0.146525	1.477167	0.979081	0.000000	0.000000	0.000000	0.000000	0.000000	0.000000	0.000000	0.000000	0.000000	0.000000	0.000000	0.000000	0.000000	0.000000	0.000000	0.000000	0.000000	0.000000	0.000000	0.000000	0.000000	0.000000
0.075000	-0.017892	-0.316466	0.169522	0.061119	0.035514	0.125209	-0.121804	-0.094146	0.031494	0.091366	0.064496	0.027437	0.146525	0.146525	1.476944	0.983399	0.000000	0.000000	0.000000	0.000000	0.000000	0.000000	0.000000	0.000000	0.000000	0.000000	0.000000	0.000000	0.000000	0.000000	0.000000	0.000000	0.000000	0.000000	0.000000	0.000000	0.000000	0.000000
0.080000	-0.017995	-0.316127	0.169623	0.061654	0.035862	0.126157	-0.121194	-0.094942	0.034063	0.091537	0.065292	0.027437	0.146525	0.146525	1.476758	0.987661	0.000000	0.000000	0.000000	0.000000	0.000000	0.000000	0.000000	0.000000	0.000000	0.000000	0.000000	0.000000	0.000000	0.000000	0.000000	0.000000	0.000000	0.000000	0.000000	0.000000	0.000000	0.000000
0.085000	-0.018101	-0.315789	0.169724	0.062195	0.036214	0.127119	-0.120576	-0.095744	0.036657	0.091709	0.066093	0.027437	0.146525	0.146525	1.476612	0.991867	0.000000	0.000000	0.000000	0.000000	0.000000	0.000000	0.000000	0.000000	0.000000	0.000000	0.000000	0.000000	0.000000	0.000000	0.000000	0.000000	0.000000	0.000000	0.000000	0.000000	0.000000	0.000000
0.090000	-0.018209	-0.315453	0.169825	0.062740	0.036567	0.128092	-0.119949	-0.096551	0.039273	0.091880	0.066900	0.027437	0.146525	0.146525	1.476507	0.996016	0.000000	0.000000	0.000000	0.000000	0.000000	0.000000	0.000000	0.000000	0.000000	0.000000	0.000000	0.000000	0.000000	0.000000	0.000000	0.000000	0.000000	0.000000	0.000000	0.000000	0.000000	0.000000
0.095000	-0.018321	-0.315119	0.169926	0.063289	0.036922	0.129078	-0.119314	-0.097362	0.041912	0.092050	0.067712	0.027437	0.146525	0.146525	1.476445	1.000111	0.000000	0.000000	0.000000	0.000000	0.000000	0.000000	0.000000	0.000000	0.000000	0.000000	0.000000	0.000000	0.000000	0.000000	0.000000	0.000000	0.000000	0.000000	0.000000	0.000000	0.000000	0.000000
0.100000	-0.018435	-0.314787	0.170028	0.063843	0.037279	0.130075	-0.118671	-0.098177	0.044569	0.092220	0.068529	0.027437	0.146525	0.146525	1.476427	1.004151	0.000000	0.000000	0.000000	0.000000	0.000000	0.000000	0.000000	0.000000	0.000000	0.000000	0.000000	0.000000	0.000000	0.000000	0.000000	0.000000	0.000000	0.000000	0.000000	0.000000	0.000000	0.000000
0.105000	-0.018552	-0.314458	0.170129	0.064400	0.037638	0.131083	-0.118020	-0.098993	0.047243	0.092389	0.069350	0.027437	0.146525	0.146525	1.476454	1.008137	0.000000	0.000000	0.000000	0.000000	0.000000	0.000000	0.000000	0.000000	0.000000	0.000000	0.000000	0.000000	0.000000	0.000000	0.000000	0.000000	0.000000	0.000000	0.000000	0.000000	0.000000	0.000000
0.110000	-0.018672	-0.314132	0.170230	0.064961	0.037999	0.132101	-0.117363	-0.099810	0.049933	0.092557	0.070174	0.027437	0.146525	0.146525	1.476528	1.012069	0.000000	0.000000	0.000000	0.000000	0.000000	0.000000	0.000000	0.000000	0.000000	0.000000	0.000000	0.000000	0.000000	0.000000	0.000000	0.000000	0.000000	0.000000	0.000000	0.000000	0.000000	0.000000
0.115000	-0.018794	-0.313809	0.170331	0.065526	0.038361	0.133129	-0.116698	-0.100628	0.052637	0.092724	0.071002	0.027437	0.146525	0.146525	1.476650	1.015949	0.000000	0.000000	0.000000	0.000000	0.000000	0.000000	0.000000	0.000000	0.000000	0.000000	0.000000	0.000000	0.000000	0.000000	0.000000	0.000000	0.000000	0.000000	0.000000	0.000000	0.000000	0.000000
0.120000	-0.018919	-0.313490	0.170432	0.066093	0.038724	0.134167	-0.116027	-0.101444	0.055352	0.092890	0.071832	0.027437	0.146525	0.146525	1.476821	1.019776	0.000000	0.000000	0.000000	0.000000	0.000000	0.000000	0.000000	0.000000	0.000000	0.000000	0.000000	0.000000	0.000000	0.000000	0.000000	0.000000	0.000000	0.000000	0.000000	0.000000	0.000000	0.000000
0.125000	-0.019046	-0.313174	0.170533	0.066664	0.039088	0.135214	-0.115350	-0.102258	0.058076	0.093054	0.072664	0.027437	0.146525	0.146525	1.477042	1.023552	0.000000	0.000000	0.000000	0.000000	0.000000	0.000000	0.000000	0.000000	0.000000	0.000000	0.000000	0.000000	0.000000	0.000000	0.000000	0.000000	0.000000	0.000000	0.000000	0.000000	0.000000	0.000000
0.130000	-0.019176	-0.312862	0.170633	0.067238	0.039454	0.136270	-0.114666	-0.103069	0.060808	0.093218	0.073498	0.027437	0.146525	0.146525	1.477313	1.027276	0.000000	0.000000	0.000000	0.000000	0.000000	0.000000	0.000000	0.000000	0.000000	0.000000	0.000000	0.000000	0.000000	0.000000	0.000000	0.000000	0.000000	0.000000	0.000000	0.000000	0.000000	0.000000
0.135000	-0.019309	-0.312554	0.170732	0.067814	0.039821	0.137334	-0.113976	-0.103875	0.063547	0.093380	0.074333	0.027437	0.146525	0.146525	1.477636	1.030951	0.000000	0.000000	0.000000	0.000000	0.000000	0.000000	0.000000	0.000000	0.000000	0.000000	0.000000	0.000000	0.000000	0.000000	0.000000	0.000000	0.000000	0.000000	0.000000	0.000000	0.000000	0.000000
0.140000	-0.019444	-0.312250	0.170830	0.068393	0.040189	0.138405	-0.113281	-0.104676	0.066289	0.093540	0.075169	0.027437	0.146525	0.146525	1.478011	1.034575	0.000000	0.000000	0.000000	0.000000	0.000000	0.000000	0.000000	0.000000	0.000000	0.000000	0.000000	0.000000	0.000000	0.000000	0.000000	0.000000	0.000000	0.000000	0.000000	0.000000	0.000000	0.000000
0.145000	-0.019581	-0.311951	0.170927	0.068975	0.040558	0.139483	-0.112580	-0.105471	0.069034	0.093700	0.076005	0.027437	0.146525	0.146525	1.478439	1.038150	0.000000	0.000000	0.000000	0.000000	0.000000	0.000000	0.000000	0.000000	0.000000	0.000000	0.000000	0.000000	0.000000	0.000000	0.000000	0.000000	0.000000	0.000000	0.000000	0.000000	0.000000	0.000000
